<svg width="73" height="69" viewBox="0 0 73 69" fill="none" xmlns="http://www.w3.org/2000/svg">
<path d="M36.5 0.599998C41.5667 0.599998 46.4 1.6 51 3.6C55.6 5.6 59.5 8.26667 62.7 11.6C65.9667 14.9333 68.4667 18.9333 70.2 23.6C71.9333 28.2 72.5333 33 72 38L71.7 41H66.1C64.3667 41 62.8667 40.4 61.6 39.2C60.4 38 59.8 36.5333 59.8 34.8C59.8 28.7333 57.5333 23.5667 53 19.3C48.4667 14.9667 42.9667 12.8 36.5 12.8C30.1 12.8 24.6333 14.9667 20.1 19.3C15.5667 23.5667 13.3 28.7333 13.3 34.8C13.3 40.8667 15.5667 46.0667 20.1 50.4C24.6333 54.7333 30.1 56.9 36.5 56.9H65.9C67.6333 56.9 69.1 57.5 70.3 58.7C71.5667 59.9 72.2 61.3333 72.2 63V69C70.8667 69 66.8333 69 60.1 69C53.4333 69 48.9 69 46.5 69H36.6C30.1333 69 24.1667 67.5 18.7 64.5C13.2333 61.4333 8.9 57.2667 5.7 52C2.5 46.7333 0.9 41 0.9 34.8C0.9 28.6 2.5 22.9 5.7 17.7C8.9 12.4333 13.2333 8.26667 18.7 5.2C24.1667 2.13333 30.1 0.599998 36.5 0.599998Z" fill="white"/>
</svg>
