<svg viewBox="0 0 32 32" fill="none" xmlns="http://www.w3.org/2000/svg">
<g clip-path="url(#clip0_903_764)">
<g clip-path="url(#clip1_903_764)">
<path d="M5.02652 14.2572C5.11527 14.2981 5.21209 14.3308 5.30085 14.3716C5.30892 14.3716 5.31698 14.3716 5.32505 14.3798C5.39767 14.4043 5.47029 14.4288 5.5429 14.4533C5.55097 14.4533 5.56711 14.4533 5.57518 14.4615C5.6478 14.486 5.72041 14.5105 5.79303 14.535C5.8011 14.535 5.81724 14.535 5.82531 14.5432C6.14805 14.6413 6.47886 14.7311 6.79354 14.8129C7.26151 14.9354 7.73756 15.0335 8.21361 15.0743C8.28622 15.0743 8.36691 15.0825 8.43953 15.0907C8.43953 15.0907 8.44759 15.0907 8.45566 15.0907C8.49601 15.0907 8.53635 15.0907 8.56862 15.0907C8.60897 15.0907 8.64931 15.0907 8.68965 15.0907C8.72193 15.0907 8.7542 15.0907 8.77841 15.107C8.80261 15.0989 8.82682 15.0825 8.85102 15.0743C8.85102 15.0743 8.85102 15.0743 8.85909 15.0743C8.85909 15.0743 8.87523 15.0743 8.8833 15.0662C8.8833 15.0662 8.89137 15.0662 8.89944 15.0662C8.89944 15.0662 8.91557 15.0662 8.92364 15.058C8.93171 15.058 8.93978 15.0498 8.95592 15.0417C8.98012 15.0253 8.99626 15.0171 9.02046 15.0008C9.02046 15.0008 9.02853 15.0008 9.0366 14.9926C9.06081 14.9763 9.08501 14.9599 9.10922 14.9354C9.10922 14.9354 9.12536 14.9191 9.13342 14.9191C9.13342 14.9191 9.14149 14.9191 9.14956 14.9109C9.14956 14.9109 9.1657 14.8946 9.17377 14.8946C9.17377 14.8946 9.18184 14.8946 9.1899 14.8782C9.1899 14.8782 9.19797 14.8701 9.20604 14.8619C9.21411 14.8537 9.23025 14.8374 9.23832 14.8292C9.23832 14.8292 9.25445 14.8129 9.25445 14.8047C9.25445 14.8047 9.25445 14.7965 9.26252 14.7883C9.27059 14.772 9.28673 14.7557 9.2948 14.7475C9.2948 14.7393 9.31093 14.7311 9.319 14.7148C9.319 14.7148 9.319 14.7148 9.319 14.7066C9.33514 14.6821 9.35934 14.6494 9.37548 14.6249C9.39162 14.5922 9.41582 14.5595 9.43196 14.5269C9.43196 14.5269 9.44003 14.5105 9.4481 14.5023C9.46424 14.4697 9.48037 14.4451 9.49651 14.4125C9.49651 14.4125 9.49651 14.4125 9.49651 14.4043C9.52072 14.3471 9.54492 14.2981 9.56913 14.2409C8.69772 14.2164 7.84245 14.0039 7.01139 13.7588C5.59938 13.3502 4.1309 12.5903 3.23529 11.3727C2.848 10.8498 2.53332 10.2533 2.3074 9.64859C2.12183 9.17465 1.8717 8.42289 2.1541 7.94078C2.1541 7.93261 2.17831 7.94078 2.17831 7.94078C2.19444 8.28398 2.20251 8.60266 2.31547 8.93768C2.42843 9.28088 2.5898 9.6159 2.76731 9.93458C3.06585 10.4494 3.4128 10.9642 3.83237 11.3891C4.33262 11.8875 4.94583 12.2552 5.58325 12.5412C6.22067 12.8272 6.89843 12.9988 7.57619 13.1541C8.29429 13.3175 9.02853 13.4564 9.77084 13.4482C9.77084 13.4319 9.77084 13.4237 9.77084 13.4074C9.77084 13.3502 9.77891 13.293 9.78698 13.2358C9.78698 13.2031 9.78698 13.1704 9.78698 13.1377C9.78698 13.1296 9.78698 13.1132 9.78698 13.1051C9.78698 13.0887 9.78698 13.0642 9.78698 13.0479C9.78698 13.0315 9.78698 13.0233 9.78698 13.007C9.78698 12.9907 9.78698 12.9743 9.78698 12.958C9.78698 12.9416 9.78698 12.9253 9.78698 12.9089C9.78698 12.8926 9.78698 12.8763 9.78698 12.8599C9.78698 12.8436 9.78698 12.8272 9.78698 12.8109C9.78698 12.8027 9.78698 12.7864 9.78698 12.7782C9.78698 12.7047 9.77084 12.6229 9.76277 12.5494C9.76277 12.5249 9.7547 12.5004 9.74664 12.4759C9.74664 12.4759 9.74664 12.4677 9.74664 12.4595C9.74664 12.435 9.73857 12.4105 9.7305 12.386C9.7305 12.386 9.7305 12.386 9.7305 12.3778C9.69823 12.2144 9.64174 12.051 9.56913 11.8957C9.53685 11.8222 9.49651 11.7486 9.4481 11.6751C9.37548 11.5525 9.28673 11.4463 9.1899 11.3482C7.35027 10.8253 3.48542 9.49333 3.17074 6.35555C2.96903 3.83878 3.43701 2.04926 3.2837 2.00024C2.60594 1.80412 -0.379434 8.619 2.5898 12.4432C3.31598 13.1623 4.08249 13.8405 5.02652 14.249V14.2572Z" fill="#F26624"/>
<path d="M11.4897 24.8636C11.6107 24.7165 11.7156 24.5612 11.8044 24.3896C12.111 23.8013 12.1594 23.1149 11.9335 22.4939C11.643 21.6767 10.8765 21.0639 10.0454 20.7207C10.3197 21.2437 10.5537 21.7911 10.7554 22.355C11.0136 23.074 11.2234 23.8095 11.409 24.5531C11.4332 24.6593 11.4574 24.7655 11.4897 24.8717V24.8636Z" fill="#F26624"/>
<path d="M22.1644 13.0803C22.1644 13.0803 22.1644 13.1456 22.1644 13.1783C22.1644 13.2355 22.1644 13.2927 22.1805 13.3499C22.1805 13.3499 22.1805 13.3744 22.1805 13.3908C22.9147 13.3908 23.6571 13.26 24.3752 13.0966C25.0529 12.9413 25.7307 12.7697 26.3681 12.4838C27.0055 12.1978 27.6187 11.8219 28.119 11.3316C28.5385 10.9149 28.8936 10.3919 29.184 9.8771C29.3615 9.55842 29.5229 9.23157 29.6359 8.8802C29.7408 8.54518 29.7569 8.22649 29.773 7.8833C29.773 7.86696 29.7892 7.86696 29.7972 7.8833C30.0716 8.36541 29.8215 9.11717 29.6439 9.5911C29.41 10.204 29.0953 10.7923 28.7161 11.3153C27.8204 12.5328 26.352 13.2927 24.94 13.7013C24.1089 13.9464 23.2536 14.1589 22.3822 14.1834C22.4064 14.2406 22.4226 14.2978 22.4548 14.3468C22.4548 14.3468 22.4548 14.3468 22.4548 14.355C22.471 14.3877 22.4871 14.4122 22.5032 14.4449C22.5032 14.4449 22.5113 14.4612 22.5194 14.4694C22.5355 14.5021 22.5597 14.5348 22.5759 14.5674C22.592 14.6001 22.6081 14.6246 22.6323 14.6491C22.6323 14.6491 22.6323 14.6491 22.6323 14.6573C22.6323 14.6655 22.6485 14.6737 22.6565 14.69C22.6646 14.7063 22.6808 14.7227 22.6888 14.7309C22.6888 14.7309 22.6888 14.739 22.6969 14.7472C22.6969 14.7472 22.713 14.7635 22.713 14.7717C22.7211 14.7799 22.7372 14.7962 22.7453 14.8044C22.7453 14.8044 22.7534 14.8126 22.7614 14.8207C22.7614 14.8207 22.7695 14.8289 22.7776 14.8371C22.7776 14.8371 22.7937 14.8534 22.8018 14.8534C22.8018 14.8534 22.8099 14.8534 22.8179 14.8616C22.8179 14.8616 22.8341 14.8779 22.8421 14.8779C22.8663 14.8943 22.8905 14.9188 22.9147 14.9351C22.9147 14.9351 22.9228 14.9351 22.9309 14.9433C22.9551 14.9597 22.9712 14.9678 22.9954 14.9842C22.9954 14.9842 23.0116 14.9923 23.0277 15.0005C23.0277 15.0005 23.0438 15.0005 23.0519 15.0087C23.0519 15.0087 23.06 15.0087 23.068 15.0087C23.068 15.0087 23.0842 15.0087 23.0923 15.0169C23.0923 15.0169 23.0923 15.0169 23.1003 15.0169C23.1245 15.025 23.1487 15.0414 23.1729 15.0495C23.1971 15.0414 23.2294 15.0332 23.2617 15.0332C23.302 15.0332 23.3424 15.0332 23.3827 15.0332C23.4231 15.0332 23.4634 15.0332 23.4957 15.0332C23.4957 15.0332 23.5038 15.0332 23.5118 15.0332C23.5844 15.0332 23.6651 15.0332 23.7377 15.0169C24.2219 14.976 24.6898 14.8779 25.1578 14.7554C25.4806 14.6655 25.8033 14.5838 26.126 14.4857C26.1341 14.4857 26.1502 14.4857 26.1583 14.4776C26.2309 14.453 26.3035 14.4285 26.3762 14.404C26.3842 14.404 26.4004 14.404 26.4084 14.3958C26.4811 14.3713 26.5537 14.3468 26.6263 14.3223C26.6344 14.3223 26.6424 14.3223 26.6505 14.3141C26.7473 14.2814 26.8361 14.2406 26.9248 14.1997C27.8689 13.7912 28.6434 13.1129 29.3615 12.3939C32.3308 8.56152 29.3454 1.75481 28.6676 1.95092C28.5143 1.99178 28.9823 3.7813 28.7403 6.23269C28.4256 9.37048 24.5607 10.7106 22.7211 11.2254C22.6243 11.3234 22.5436 11.4297 22.4629 11.5522C22.4145 11.6258 22.3822 11.6993 22.3419 11.7728C22.2693 11.9281 22.2208 12.0915 22.1805 12.255C22.1805 12.255 22.1805 12.255 22.1805 12.2631C22.1805 12.2876 22.1724 12.3122 22.1644 12.3367C22.1644 12.3367 22.1644 12.3448 22.1644 12.353C22.1644 12.3775 22.1563 12.402 22.1482 12.4266C22.1402 12.5001 22.1321 12.5736 22.124 12.6553C22.124 12.6635 22.124 12.6799 22.124 12.688C22.124 12.7044 22.124 12.7207 22.124 12.7371C22.124 12.7534 22.124 12.7697 22.124 12.7861C22.124 12.8024 22.124 12.8188 22.124 12.8351C22.124 12.8515 22.124 12.8678 22.124 12.8841C22.124 12.9005 22.124 12.9087 22.124 12.925C22.124 12.9413 22.124 12.9659 22.124 12.9822C22.124 12.9904 22.124 13.0067 22.124 13.0149L22.1644 13.0803Z" fill="#F26624"/>
<path d="M20.0586 22.4854C19.8408 23.1065 19.8811 23.7929 20.1877 24.3812C20.2765 24.5528 20.3814 24.708 20.5024 24.8551C20.5266 24.7489 20.5508 24.6427 20.5831 24.5364C20.7687 23.7929 20.9785 23.0574 21.2367 22.3384C21.4384 21.7827 21.6724 21.2352 21.9467 20.7041C21.1156 21.0473 20.3491 21.652 20.0586 22.4773V22.4854Z" fill="#F26624"/>
<path d="M27.5058 14.4449C27.3848 14.5102 27.2557 14.5674 27.1266 14.6246C27.1185 14.6246 27.1024 14.6328 27.0943 14.641C26.5214 14.8861 25.9002 15.0495 25.3031 15.2048C24.8351 15.3274 24.3591 15.4336 23.8749 15.4745C23.8265 15.4745 23.7781 15.4745 23.7378 15.4826C23.7378 15.4826 23.7378 15.4826 23.7297 15.4826C23.6974 15.4826 23.6571 15.4826 23.6248 15.4826C23.5845 15.4826 23.5441 15.4826 23.5038 15.4826C23.4957 15.4826 23.4796 15.4826 23.4715 15.4826C23.415 15.4826 23.3666 15.4826 23.3101 15.4826C23.294 15.4826 23.2779 15.4826 23.2617 15.4745C23.2295 15.4745 23.2052 15.4745 23.173 15.4663C23.0842 15.4499 22.9955 15.4254 22.9067 15.4009C22.8825 15.4009 22.8583 15.3846 22.8422 15.3764C22.8422 15.3764 22.8341 15.3764 22.826 15.3764C22.7937 15.3601 22.7695 15.3519 22.7373 15.3355C22.7292 15.3355 22.7131 15.3274 22.705 15.3192C22.6808 15.3029 22.6566 15.2947 22.6324 15.2783C22.6324 15.2783 22.6243 15.2783 22.6162 15.2702C22.592 15.2538 22.5678 15.2375 22.5517 15.2293C22.5436 15.2211 22.5275 15.213 22.5194 15.2048C22.4952 15.1885 22.4791 15.1721 22.4549 15.1558C22.4387 15.1476 22.4226 15.1313 22.4145 15.1231C22.4065 15.1231 22.3984 15.1067 22.3903 15.0986C22.358 15.0741 22.3338 15.0414 22.3016 15.0087C22.2774 14.9842 22.2532 14.9515 22.2289 14.927C22.2047 14.9025 22.1805 14.8698 22.1644 14.8453C21.8336 14.404 21.6722 13.8565 21.6077 13.3091C21.5512 12.8024 21.5915 12.2713 21.7529 11.7892C21.769 11.7483 21.7771 11.7075 21.7932 11.6666C21.8094 11.6176 21.8336 11.5686 21.8497 11.5277C21.8497 11.5195 21.8578 11.5032 21.8659 11.495C21.8901 11.446 21.9143 11.397 21.9385 11.3479C21.9546 11.3234 21.9708 11.2907 21.9869 11.2662C21.995 11.2499 22.0111 11.2254 22.0192 11.209C22.0514 11.1518 22.0918 11.0865 22.1321 11.0293C21.9385 10.8658 21.5996 10.7269 21.0267 10.5962C20.5103 10.4736 19.8245 10.3592 18.9692 10.2448C18.2753 10.1549 17.5895 10.0896 17.057 10.0405C16.9602 10.0977 16.8795 10.1631 16.7988 10.2366C16.7827 10.253 16.7665 10.2693 16.7504 10.2857C16.7423 10.2857 16.7342 10.302 16.7262 10.3102C16.6697 10.3674 16.6132 10.4328 16.5567 10.4981C16.5487 10.5063 16.5406 10.5226 16.5325 10.5308C16.5325 10.5308 16.5245 10.5471 16.5164 10.5553C16.5164 10.5553 16.5083 10.5717 16.5003 10.5798C16.5003 10.5798 16.5003 10.5798 16.4922 10.588C16.4922 10.588 16.4841 10.5962 16.476 10.6043C16.476 10.6043 16.476 10.6043 16.476 10.6125C16.476 10.6125 16.476 10.6207 16.468 10.6289C16.4518 10.6452 16.4438 10.6697 16.4276 10.6861C16.4276 10.6942 16.4115 10.7106 16.4034 10.7187C16.2905 10.9149 16.2017 11.1273 16.1452 11.3479C16.0888 11.5686 16.0565 11.8055 16.0484 12.0425C16.0403 11.8055 16.0081 11.5767 15.9516 11.3479C15.8951 11.1273 15.8064 10.9149 15.6934 10.7187C15.6934 10.7106 15.6773 10.6942 15.6692 10.6861C15.6531 10.6697 15.645 10.6452 15.6288 10.6289C15.6288 10.6289 15.6288 10.6207 15.6208 10.6125C15.6208 10.6125 15.6208 10.6125 15.6208 10.6043C15.6208 10.6043 15.6127 10.5962 15.6046 10.588C15.6046 10.588 15.6046 10.588 15.5966 10.5798C15.5966 10.5798 15.5885 10.5635 15.5804 10.5553C15.5804 10.5553 15.5724 10.539 15.5643 10.5308C15.5643 10.5226 15.5482 10.5063 15.5401 10.4981C15.4917 10.4328 15.4352 10.3674 15.3707 10.3102C15.3707 10.3102 15.3545 10.2938 15.3464 10.2857C15.3303 10.2693 15.3142 10.253 15.298 10.2366C15.2173 10.1631 15.1286 10.0977 15.0398 10.0405C14.5073 10.0896 13.8215 10.1549 13.1276 10.2448C12.2804 10.351 11.5865 10.4736 11.0701 10.5962C10.5053 10.7269 10.1583 10.8658 9.9647 11.0293C10.005 11.0865 10.0454 11.1437 10.0777 11.209C10.0857 11.2254 10.1019 11.2499 10.1099 11.2662C10.1261 11.2907 10.1422 11.3234 10.1583 11.3479C10.1826 11.397 10.2068 11.446 10.231 11.495C10.231 11.5032 10.239 11.5195 10.2471 11.5277C10.2632 11.5767 10.2874 11.6258 10.3036 11.6666C10.3197 11.7075 10.3359 11.7483 10.3439 11.7892C10.4972 12.2795 10.5376 12.8024 10.4892 13.3091C10.4327 13.8565 10.2713 14.404 9.93243 14.8453C9.90822 14.8698 9.89208 14.9025 9.86788 14.927C9.84367 14.9515 9.81947 14.9842 9.79526 15.0087C9.76299 15.0414 9.73878 15.0659 9.70651 15.0986C9.69844 15.1067 9.69037 15.1149 9.6823 15.1231C9.66616 15.1394 9.65003 15.1476 9.64196 15.1558C9.61775 15.1721 9.60161 15.1885 9.57741 15.2048C9.56934 15.213 9.5532 15.2211 9.54513 15.2293C9.52093 15.2457 9.50479 15.262 9.48059 15.2702C9.48059 15.2702 9.47252 15.2702 9.46445 15.2783C9.44024 15.2947 9.41604 15.3029 9.39183 15.3192C9.38376 15.3192 9.37569 15.3274 9.35956 15.3355C9.32728 15.3519 9.30308 15.3601 9.2708 15.3764C9.2708 15.3764 9.26273 15.3764 9.25466 15.3764C9.23046 15.3846 9.20625 15.3927 9.19012 15.4009C9.10136 15.4254 9.01261 15.4418 8.92385 15.4663C8.89158 15.4663 8.86737 15.4663 8.8351 15.4745C8.81896 15.4745 8.80282 15.4745 8.78669 15.4826C8.73021 15.4826 8.68179 15.4826 8.62531 15.4826C8.61725 15.4826 8.60111 15.4826 8.59304 15.4826C8.5527 15.4826 8.51236 15.4826 8.47201 15.4826C8.43974 15.4826 8.39939 15.4826 8.36712 15.4826C8.36712 15.4826 8.36712 15.4826 8.35905 15.4826C8.31064 15.4826 8.26223 15.4826 8.22189 15.4745C7.73777 15.4336 7.26172 15.3274 6.79375 15.2048C6.19667 15.0414 5.57539 14.8779 5.00252 14.641C4.99445 14.641 4.97832 14.6328 4.97025 14.6246C4.84115 14.5674 4.71205 14.5102 4.59102 14.4449H0L2.40444 16.8799C3.17095 17.6562 4.21987 18.0974 5.30913 18.0974C5.76097 18.0974 6.21281 18.0239 6.64851 17.8686L6.90671 17.7788C7.12456 17.7297 7.32627 17.6725 7.51992 17.6153C7.48764 17.599 7.45537 17.5908 7.4231 17.5745C7.39889 17.5663 7.38275 17.5581 7.35855 17.55C7.34241 17.5418 7.3182 17.5336 7.30207 17.5255C7.27786 17.5173 7.26172 17.5091 7.23752 17.4928C7.22138 17.4846 7.19718 17.4764 7.18104 17.4683C7.15683 17.4601 7.1407 17.4437 7.11649 17.4356C7.10035 17.4274 7.08422 17.4192 7.06808 17.4111C7.04387 17.4029 7.02774 17.3865 7.00353 17.3784C6.98739 17.3702 6.97126 17.362 6.95512 17.3539C6.93091 17.3457 6.90671 17.3293 6.8825 17.3212C6.87443 17.3212 6.8583 17.313 6.85023 17.3048C6.80182 17.2803 6.74534 17.2558 6.69692 17.2231C6.68886 17.2231 6.67272 17.2149 6.66465 17.2068C6.62431 17.1904 6.58396 17.1659 6.54362 17.1496C6.0353 16.8963 5.51084 16.6593 4.98638 16.4468C4.84115 16.3896 4.70398 16.3324 4.55875 16.2752C4.51034 16.2589 4.46193 16.2426 4.41351 16.218C4.31669 16.1772 4.21987 16.1445 4.12305 16.1036C4.06657 16.0873 4.01815 16.0628 3.96167 16.0464C3.86485 16.0138 3.7761 15.9729 3.67927 15.9402C3.63086 15.9239 3.57438 15.8994 3.52597 15.883C3.3888 15.834 3.25971 15.785 3.12254 15.7359C3.21936 15.7686 3.31619 15.7931 3.40494 15.8258C4.02622 16.0138 4.63944 16.1935 5.26072 16.3733C6.30963 16.6756 7.38275 17.0433 8.47201 17.2313V17.2395V17.6398C8.47201 18.7511 8.90772 19.8216 9.69037 20.606H10.2713C10.4327 20.6632 10.594 20.7204 10.7393 20.7858C11.3202 21.0473 11.8043 21.5212 12.0787 22.1014C12.5224 23.0329 12.3288 23.9563 11.8527 24.8224C11.7721 24.9695 11.6994 25.1084 11.6268 25.2473C11.5623 25.3781 11.5058 25.517 11.4493 25.6477L11.1911 26.2361C11.0782 26.4894 11.0217 26.7672 11.0217 27.0532V27.2166C11.0217 27.7559 11.2315 28.2707 11.6107 28.6548C11.9899 29.0388 12.4982 29.2513 13.0308 29.2513C13.4826 29.2513 13.9344 29.1941 14.3701 29.0879L14.6525 29.0143C15.0883 28.8999 15.5401 28.8509 15.9919 28.8509H16.0403C16.4922 28.8509 16.944 28.9081 17.3797 29.0143L17.6621 29.0879C18.0978 29.2023 18.5497 29.2513 19.0015 29.2513C19.534 29.2513 20.0424 29.0388 20.4216 28.6548C20.8008 28.2707 21.0106 27.7559 21.0106 27.2166V27.0532C21.0106 26.7754 20.9541 26.4976 20.8411 26.2361L20.583 25.6477C20.5345 25.5088 20.4781 25.3781 20.4054 25.2473C20.3328 25.1084 20.2602 24.9695 20.1795 24.8224C19.7035 23.9563 19.5018 23.0247 19.9536 22.1014C20.236 21.5212 20.7201 21.0555 21.293 20.7858C21.4382 20.7204 21.5996 20.6632 21.761 20.606H22.3419C23.1165 19.8216 23.5603 18.7511 23.5603 17.6398V17.2395C23.5603 17.2395 23.5603 17.2395 23.5603 17.2313C24.6415 17.0433 25.7146 16.6756 26.7716 16.3733C27.3928 16.1935 28.0141 16.0138 28.6273 15.8258C28.7242 15.7931 28.821 15.7686 28.9097 15.7359C28.7726 15.785 28.6435 15.834 28.5063 15.883C28.4579 15.8994 28.4014 15.9239 28.353 15.9402C28.2562 15.9729 28.1674 16.0138 28.0706 16.0464C28.0141 16.0628 27.9657 16.0873 27.9092 16.1036C27.8124 16.1445 27.7156 16.1772 27.6188 16.218C27.5703 16.2344 27.5219 16.2507 27.4735 16.2752C27.3283 16.3324 27.1911 16.3896 27.0459 16.4468C26.5214 16.6593 25.997 16.8963 25.4887 17.1496C25.4483 17.1659 25.408 17.1904 25.3676 17.2068C25.3596 17.2068 25.3434 17.2149 25.3354 17.2231C25.2869 17.2476 25.2305 17.2721 25.182 17.3048C25.174 17.3048 25.1578 17.313 25.1498 17.3212C25.1256 17.3293 25.1014 17.3457 25.0772 17.3539C25.061 17.362 25.0449 17.3702 25.0287 17.3784C25.0045 17.3865 24.9884 17.4029 24.9642 17.4111C24.9481 17.4192 24.9319 17.4274 24.9158 17.4356C24.8916 17.4437 24.8754 17.4601 24.8512 17.4683C24.8351 17.4764 24.8109 17.4846 24.7948 17.4928C24.7705 17.5009 24.7544 17.5091 24.7302 17.5255C24.7141 17.5336 24.6899 17.5418 24.6737 17.55C24.6495 17.5581 24.6334 17.5663 24.6092 17.5745C24.5769 17.5908 24.5446 17.599 24.5124 17.6153C24.706 17.6725 24.9077 17.7297 25.1256 17.7788L25.3838 17.8686C25.8114 18.0157 26.2632 18.0974 26.7231 18.0974C27.8124 18.0974 28.8533 17.6562 29.6278 16.8799L32.0323 14.4449H27.5381H27.5058ZM19.6067 15.4091L16.589 18.8492C16.589 18.2772 16.8391 17.7379 17.2748 17.3702C18.1624 16.6184 19.6067 15.4173 19.6067 15.4173V15.4091ZM15.411 18.8492L12.3933 15.4091C12.3933 15.4091 13.8376 16.6103 14.7252 17.362C15.1609 17.7297 15.411 18.269 15.411 18.841V18.8492ZM10.0857 17.5581C10.1341 17.9585 10.2471 18.4815 10.5698 18.7593C10.4488 18.7593 10.3197 18.7185 10.231 18.6776C9.9647 18.5632 9.8114 18.2772 9.71457 18.0157C9.61775 17.7624 9.54513 17.4928 9.529 17.2231C9.62582 16.6184 9.9647 16.2099 10.3843 15.7768C10.8038 15.3519 11.1427 14.8207 11.3686 14.2569C11.4574 14.0363 11.5219 13.8075 11.5381 13.5787C11.6107 14.0935 11.5219 14.6165 11.2718 15.0822C11.0378 15.5317 10.7151 15.9075 10.4246 16.3161C10.1503 16.7083 10.0212 17.076 10.0777 17.5581H10.0857ZM11.9334 19.1924C11.2395 18.8492 11.054 18.0893 11.2234 17.3947C11.2315 17.3947 11.2476 17.3947 11.2557 17.3947C11.3283 17.4764 11.4009 17.5581 11.4655 17.6317C11.5219 17.697 11.5784 17.7542 11.6349 17.8196C11.5623 17.983 11.5542 18.2037 11.5542 18.3916C11.5542 18.792 11.877 19.1189 12.2804 19.1189C12.4498 19.1189 12.6435 19.1189 12.7968 19.0617C12.8613 19.1352 12.9259 19.2006 12.9904 19.2741C12.9824 19.2741 12.9662 19.2741 12.9581 19.2823C12.6193 19.3967 12.2562 19.3722 11.9334 19.2087V19.1924ZM13.7085 28.0746C13.3616 28.091 13.0066 27.9439 12.7564 27.7069C12.4982 27.4618 12.3691 27.1022 12.3611 26.7509C12.3611 26.5548 12.3772 26.2442 12.5547 26.138C12.7887 26.3341 13.0308 26.5057 13.1034 26.5711C13.5875 26.9633 14.0555 27.3637 14.5557 27.7478C14.3379 27.9521 13.9667 28.0664 13.7085 28.0828V28.0746ZM16.1614 25.8439C16.1049 25.852 16.0565 25.8602 16.0081 25.8684C15.9597 25.8602 15.9032 25.852 15.8548 25.8439C15.5643 25.7948 15.2819 25.7049 14.9995 25.6314C14.3459 25.4598 13.7005 25.4108 13.0308 25.5415C12.9823 25.5497 12.9743 25.4925 13.0146 25.4761C13.3858 25.3209 13.7892 25.2228 14.1926 25.1901V24.61C14.1926 24.5364 14.1846 24.4711 14.1846 24.3975C14.1846 23.7765 14.1846 23.3843 14.2088 22.8777C14.2491 21.9625 14.2088 21.0636 13.652 20.3037C13.6359 20.2874 13.6682 20.271 13.6762 20.2874C14.3137 20.8021 14.588 21.6438 14.6768 22.4364C14.709 22.7306 14.7171 23.0411 14.709 23.3434V25.1901C14.7574 25.1901 14.8139 25.1983 14.8623 25.2065C15.056 25.231 15.2335 25.2882 15.411 25.3536C15.4997 25.3863 15.5804 25.4189 15.645 25.4435C15.6692 25.4516 15.6934 25.4598 15.7176 25.4761C15.8386 25.5252 15.9193 25.5497 16.0081 25.5415C16.0968 25.5415 16.1775 25.5252 16.2824 25.4761C16.5648 25.3536 16.8311 25.2473 17.1377 25.2065C17.1861 25.2065 17.2426 25.1983 17.291 25.1901V23.3434C17.291 23.0411 17.291 22.7388 17.3232 22.4446C17.412 21.6438 17.6863 20.8103 18.3238 20.2955C18.3399 20.2874 18.3641 20.2955 18.348 20.3119C17.7832 21.0718 17.7509 21.9788 17.7912 22.8858C17.8074 23.3843 17.8154 23.7847 17.8154 24.4057C17.8154 24.4711 17.8154 24.5446 17.8074 24.6182V25.1983C18.2108 25.231 18.6142 25.3291 18.9854 25.4843C19.0257 25.5007 19.0096 25.566 18.9692 25.5497C18.2995 25.4108 17.6621 25.468 17.0005 25.6396C16.7181 25.7131 16.4357 25.803 16.1452 25.852L16.1614 25.8439ZM19.6389 26.759C19.6389 27.1104 19.5018 27.4699 19.2436 27.7151C18.9934 27.952 18.6384 28.0991 18.2915 28.0828C18.0333 28.0746 17.6621 27.9521 17.4443 27.7478C17.9365 27.3719 18.4125 26.9715 18.8966 26.5711C18.9692 26.5057 19.2113 26.3423 19.4453 26.138C19.6228 26.2442 19.647 26.5629 19.6389 26.7509V26.759ZM20.0746 19.2006C19.7519 19.364 19.3969 19.3885 19.0499 19.2741C19.0419 19.2741 19.0257 19.2741 19.0176 19.2659C19.0822 19.1924 19.1467 19.127 19.2113 19.0535C19.3646 19.1107 19.5582 19.1107 19.7277 19.1107C20.123 19.1107 20.4539 18.7838 20.4539 18.3834C20.4539 18.1955 20.4539 17.9749 20.3732 17.8114C20.4297 17.7542 20.4861 17.6889 20.5426 17.6235C20.6072 17.55 20.6798 17.4683 20.7524 17.3865C20.7605 17.3865 20.7766 17.3865 20.7847 17.3865C20.9541 18.0893 20.7685 18.841 20.0746 19.1842V19.2006ZM22.2935 18.0321C22.1967 18.2936 22.0434 18.5796 21.7771 18.694C21.6884 18.7348 21.5593 18.7675 21.4382 18.7757C21.761 18.4897 21.8739 17.9667 21.9223 17.5745C21.9788 17.0924 21.8497 16.7165 21.5754 16.3324C21.293 15.9239 20.9622 15.548 20.7282 15.0986C20.4861 14.6328 20.3974 14.118 20.4619 13.595C20.4781 13.8238 20.5426 14.0526 20.6314 14.2733C20.8573 14.8289 21.1962 15.3682 21.6157 15.7931C22.0353 16.2262 22.3742 16.6266 22.471 17.2395C22.4549 17.5091 22.3822 17.7869 22.2854 18.0321H22.2935Z" fill="#F26624"/>
<path d="M16.0159 29.0391C15.7739 29.0391 15.5238 29.0881 15.2978 29.178C15.0719 29.2679 14.7734 29.3823 14.5475 29.4721C14.3215 29.562 14.0714 29.6111 13.8293 29.6111H12.8369C13.2888 30.755 14.7895 31.0165 15.9917 31.0002C17.1939 31.0247 18.6947 30.755 19.1465 29.6111H18.1702C17.9201 29.6111 17.6619 29.562 17.4279 29.464L16.7502 29.1861C16.5162 29.0881 16.2661 29.0391 16.0079 29.0391H16.0159Z" fill="#F26624"/>
</g>
</g>
<defs>
<clipPath id="clip0_903_764">
<rect width="32" height="32" fill="white"/>
</clipPath>
<clipPath id="clip1_903_764">
<rect width="32" height="29" fill="white" transform="translate(0 2)"/>
</clipPath>
</defs>
</svg>
