<svg viewBox="0 0 190 31" fill="none" xmlns="http://www.w3.org/2000/svg">
<g clip-path="url(#clip0_51_459)">
<path d="M5.34267 13.1024C5.43894 13.1447 5.53786 13.1834 5.63678 13.2212C5.6465 13.2248 5.65533 13.2284 5.66504 13.232C5.74189 13.2608 5.81873 13.2887 5.89645 13.3147C5.90882 13.3192 5.92206 13.3237 5.93531 13.3273C6.01127 13.3525 6.08811 13.3777 6.16495 13.402C6.17644 13.4056 6.1888 13.4092 6.20028 13.4128C6.54298 13.5181 6.89097 13.6099 7.2319 13.7017C7.73004 13.8357 8.2326 13.9419 8.74399 13.9824C8.82525 13.9887 8.90651 13.9932 8.98776 13.9968C8.99218 13.9968 8.9966 13.9968 9.00101 13.9968C9.04252 13.9986 9.08403 13.9995 9.12466 13.9995C9.12643 13.9995 9.1282 13.9995 9.12908 13.9995C9.17236 13.9995 9.21475 13.9995 9.25803 13.9995C9.29248 13.9995 9.32251 14.0058 9.34812 14.0175C9.34812 14.0175 9.349 14.0175 9.34989 14.0175C9.34989 14.0175 9.35342 14.0157 9.35519 14.0148C9.38257 14.004 9.40995 13.9914 9.43644 13.9788C9.43998 13.977 9.44439 13.9752 9.44793 13.9734C9.44793 13.9734 9.44793 13.9734 9.44881 13.9734C9.45676 13.9698 9.46382 13.9653 9.47177 13.9617C9.47619 13.959 9.48149 13.9572 9.48591 13.9545C9.48855 13.9536 9.49032 13.9518 9.49297 13.9509C9.50004 13.9473 9.5071 13.9428 9.51505 13.9392C9.52477 13.9338 9.53537 13.9293 9.54508 13.923C9.54508 13.923 9.5495 13.9194 9.55126 13.9185C9.57423 13.905 9.59631 13.8906 9.61927 13.8762C9.62457 13.8726 9.62987 13.8699 9.63429 13.8663C9.63429 13.8663 9.63605 13.8654 9.63694 13.8645C9.66343 13.8465 9.68905 13.8267 9.71466 13.806C9.71731 13.8042 9.71996 13.8024 9.72261 13.7997C9.73056 13.7934 9.73763 13.7862 9.74557 13.779C9.74999 13.7754 9.75441 13.7718 9.75882 13.7673C9.76147 13.7646 9.76412 13.7628 9.76766 13.7601C9.7756 13.7529 9.78267 13.7457 9.79062 13.7385C9.79592 13.734 9.80034 13.7295 9.80563 13.725C9.81182 13.7196 9.81712 13.7125 9.82242 13.7071C9.82507 13.7044 9.82772 13.7017 9.83037 13.699C9.84185 13.6873 9.85245 13.6756 9.86304 13.6639C9.87011 13.6567 9.87718 13.6495 9.88424 13.6414C9.88866 13.6369 9.89219 13.6306 9.89661 13.6261C9.90897 13.6108 9.92134 13.5946 9.9337 13.5793C9.94165 13.5685 9.95048 13.5595 9.95843 13.5478C9.9602 13.5451 9.96197 13.5415 9.96462 13.5388C9.98493 13.5109 10.0044 13.4812 10.0229 13.4506C10.0229 13.4506 10.0264 13.4452 10.0282 13.4425C10.0494 13.4083 10.0688 13.3732 10.0883 13.3372C10.0927 13.3291 10.0971 13.3201 10.1015 13.3121C10.1183 13.2806 10.1342 13.2482 10.1492 13.2158C10.151 13.2122 10.1527 13.2077 10.1545 13.2041C10.181 13.1465 10.2057 13.088 10.2287 13.0286C9.30308 13.0034 8.39423 12.7713 7.50747 12.5121C6.00421 12.0722 4.4453 11.2633 3.49583 9.95768C3.08778 9.39622 2.75391 8.76278 2.50573 8.11224C2.3123 7.60477 2.04291 6.80217 2.33879 6.2848C2.34586 6.2731 2.36353 6.2785 2.36353 6.292C2.37677 6.6618 2.39091 7.00192 2.50573 7.35733C2.62585 7.72804 2.79454 8.08075 2.9862 8.41907C3.29975 8.97063 3.67071 9.52309 4.11939 9.97208C4.65021 10.5029 5.30292 10.898 5.97948 11.2066C6.6578 11.5161 7.37851 11.6979 8.10011 11.8643C8.86234 12.0398 9.64489 12.1873 10.4283 12.1801C10.4301 12.1666 10.4318 12.1531 10.4336 12.1396C10.4398 12.0767 10.4442 12.0146 10.4477 11.9516C10.4495 11.9183 10.4504 11.8841 10.4522 11.8499C10.4522 11.8382 10.4522 11.8265 10.4522 11.8148C10.4522 11.7932 10.4522 11.7716 10.4522 11.75C10.4522 11.7356 10.4522 11.7203 10.4522 11.706C10.4522 11.6871 10.4522 11.6691 10.4522 11.6502C10.4522 11.634 10.4522 11.6169 10.4504 11.6007C10.4504 11.5845 10.4495 11.5683 10.4486 11.5521C10.4486 11.5341 10.4469 11.5152 10.446 11.4972C10.446 11.4846 10.4442 11.4729 10.4433 11.4603C10.4371 11.3793 10.4283 11.2984 10.4168 11.2183C10.4168 11.2165 10.4168 11.2156 10.4168 11.2138C10.4124 11.1868 10.408 11.1598 10.4036 11.1328C10.4036 11.1283 10.4018 11.1238 10.4009 11.1193C10.3956 11.0923 10.3903 11.0653 10.385 11.0392C10.385 11.0356 10.3833 11.032 10.3824 11.0284C10.3435 10.8512 10.2879 10.6775 10.2119 10.5119C10.1748 10.4319 10.1333 10.3527 10.0865 10.2762C10.0079 10.1493 9.91604 10.0351 9.81535 9.92889C7.85899 9.37193 3.7555 7.94398 3.41722 4.58782C3.15225 1.96407 3.65569 0.0520447 3.48965 0.00435654C2.76716 -0.203492 -0.401873 7.0757 2.75303 11.1706C3.52056 11.939 4.34373 12.6669 5.34267 13.1015V13.1024Z" fill="#FF5C00"/>
<path d="M12.2124 24.4361C12.3414 24.2787 12.4544 24.1095 12.5498 23.9251C12.8749 23.297 12.9234 22.5637 12.6903 21.8961C12.3829 21.0188 11.5677 20.3691 10.6809 20.0029C10.9724 20.5653 11.2197 21.1483 11.4343 21.7467C11.7099 22.516 11.9342 23.3051 12.1303 24.0996C12.1577 24.2121 12.1851 24.3237 12.2124 24.4361Z" fill="#FF5C00"/>
<path d="M23.5486 11.8479C23.5495 11.8821 23.5513 11.9154 23.5522 11.9496C23.5557 12.0116 23.5601 12.0746 23.5663 12.1367C23.5681 12.1502 23.5698 12.1637 23.5716 12.1772C24.3559 12.1844 25.1385 12.0368 25.8998 11.8614C26.6223 11.6949 27.3421 11.5132 28.0204 11.2036C28.6961 10.8959 29.3497 10.5 29.8805 9.96915C30.3283 9.52106 30.6993 8.9686 31.0137 8.41614C31.2063 8.07872 31.3741 7.72601 31.4942 7.3544C31.609 6.99899 31.6231 6.65887 31.6364 6.28906C31.6364 6.27557 31.6541 6.27017 31.6611 6.28187C31.957 6.79924 31.6876 7.60184 31.4942 8.10931C31.246 8.75985 30.913 9.39329 30.5041 9.95475C29.5546 11.2603 27.9966 12.0692 26.4925 12.5092C25.6057 12.7684 24.696 13.0005 23.7712 13.0257C23.7942 13.0851 23.818 13.1436 23.8454 13.2011C23.8472 13.2047 23.8489 13.2092 23.8507 13.2128C23.8657 13.2452 23.8816 13.2776 23.8984 13.3091C23.9028 13.3172 23.9072 13.3262 23.9117 13.3343C23.9311 13.3694 23.9505 13.4054 23.9708 13.4396C23.9726 13.4423 23.9744 13.445 23.9761 13.4477C23.9947 13.4783 24.0141 13.508 24.0344 13.5359C24.0362 13.5386 24.038 13.5422 24.0406 13.5449C24.0486 13.5557 24.0574 13.5656 24.0653 13.5764C24.0777 13.5926 24.0901 13.6078 24.1024 13.6231C24.1068 13.6285 24.1104 13.6339 24.1148 13.6384C24.1219 13.6465 24.1289 13.6528 24.136 13.6609C24.1466 13.6726 24.1581 13.6852 24.1687 13.696C24.1713 13.6987 24.174 13.7014 24.1766 13.7041C24.1828 13.7104 24.1881 13.7167 24.1934 13.7221C24.1987 13.7266 24.2031 13.7311 24.2084 13.7356C24.2164 13.7428 24.2234 13.75 24.2314 13.7572C24.234 13.7599 24.2367 13.7617 24.2402 13.7644C24.2446 13.768 24.249 13.7725 24.2535 13.7761C24.2614 13.7824 24.2685 13.7905 24.2764 13.7968C24.2791 13.7986 24.2817 13.8004 24.2844 13.8031C24.31 13.8238 24.3356 13.8427 24.3621 13.8616C24.3621 13.8616 24.3639 13.8625 24.3647 13.8634C24.37 13.867 24.3745 13.8697 24.3798 13.8733C24.4018 13.8877 24.4248 13.9021 24.4478 13.9156C24.4495 13.9165 24.4522 13.9183 24.454 13.9201C24.4637 13.9264 24.4743 13.9309 24.484 13.9363C24.491 13.9399 24.4981 13.9444 24.5061 13.948C24.5087 13.9489 24.5105 13.9507 24.5131 13.9516C24.5175 13.9543 24.5228 13.9561 24.5273 13.9588C24.5352 13.9624 24.5423 13.9669 24.5502 13.9705C24.5502 13.9705 24.5502 13.9705 24.5511 13.9705C24.5546 13.9723 24.5591 13.9741 24.5626 13.9759C24.5891 13.9885 24.6165 14.0001 24.6438 14.0118C24.6456 14.0118 24.6474 14.0136 24.6491 14.0145C24.6491 14.0145 24.65 14.0145 24.6509 14.0145C24.6765 14.0028 24.7066 13.9966 24.741 13.9966C24.7843 13.9966 24.8276 13.9966 24.87 13.9966C24.8717 13.9966 24.8735 13.9966 24.8744 13.9966C24.9159 13.9966 24.9574 13.9948 24.998 13.9939C25.0024 13.9939 25.0069 13.9939 25.0113 13.9939C25.0925 13.9912 25.1738 13.9867 25.255 13.9795C25.7664 13.939 26.269 13.8328 26.7671 13.6987C27.1081 13.6069 27.4561 13.5152 27.7988 13.4099C27.8102 13.4063 27.8226 13.4027 27.8341 13.3991C27.9109 13.3748 27.9878 13.3505 28.0637 13.3244C28.077 13.3199 28.0893 13.3154 28.1026 13.3118C28.1803 13.2857 28.2571 13.2578 28.334 13.229C28.3437 13.2254 28.3525 13.2218 28.3623 13.2182C28.4612 13.1805 28.5592 13.1418 28.6564 13.0995C29.6553 12.664 30.4785 11.937 31.246 11.1686C34.4 7.07367 31.2319 -0.206422 30.5085 0.00142633C30.3425 0.0491145 30.8459 1.96204 30.5818 4.58219C30.2435 7.93835 26.14 9.3654 24.1837 9.92326C24.083 10.0303 23.9911 10.1437 23.9125 10.2706C23.8657 10.3471 23.8242 10.4253 23.7871 10.5063C23.7112 10.6719 23.6546 10.8446 23.6167 11.0228C23.6167 11.0264 23.6149 11.03 23.614 11.0336C23.6087 11.0606 23.6025 11.0867 23.5981 11.1137C23.5981 11.1182 23.5963 11.1227 23.5955 11.1272C23.591 11.1542 23.5857 11.1811 23.5822 11.2081C23.5822 11.2099 23.5822 11.2108 23.5822 11.2126C23.5698 11.2927 23.5619 11.3737 23.5557 11.4547C23.5548 11.4673 23.5539 11.479 23.5531 11.4916C23.5522 11.5096 23.5513 11.5285 23.5504 11.5465C23.5504 11.5627 23.5486 11.5789 23.5486 11.595C23.5486 11.6112 23.5478 11.6283 23.5469 11.6445C23.5469 11.6634 23.5469 11.6814 23.5469 11.7003C23.5469 11.7147 23.5469 11.73 23.5469 11.7444C23.5469 11.766 23.5469 11.7876 23.5469 11.8092C23.5469 11.8209 23.5469 11.8326 23.5469 11.8443L23.5486 11.8479Z" fill="#FF5C00"/>
<path d="M21.3105 21.8961C21.0765 22.5637 21.1251 23.297 21.451 23.9251C21.5464 24.1086 21.6594 24.2787 21.7884 24.4361C21.8158 24.3237 21.8431 24.2121 21.8705 24.0996C22.0666 23.3051 22.29 22.516 22.5665 21.7467C22.7811 21.1483 23.0284 20.5653 23.3199 20.0029C22.4331 20.37 21.6179 21.0188 21.3105 21.8961Z" fill="#FF5C00"/>
<path d="M29.2261 13.3072C29.0945 13.3764 28.9603 13.4412 28.8225 13.5015C28.8101 13.5069 28.7969 13.5114 28.7845 13.5168C28.1751 13.7768 27.5197 13.9496 26.882 14.1215C26.383 14.2564 25.8752 14.3635 25.362 14.4103C25.3125 14.4148 25.2631 14.4184 25.2136 14.422C25.2101 14.422 25.2057 14.422 25.2021 14.422C25.165 14.4247 25.1279 14.4265 25.0908 14.4283C25.0467 14.4301 25.0025 14.4319 24.9584 14.4328C24.9469 14.4328 24.9345 14.4328 24.923 14.4337C24.9204 14.4337 24.9186 14.4337 24.916 14.4337C24.8586 14.4346 24.8003 14.4355 24.7428 14.4337C24.7402 14.4337 24.7375 14.4337 24.734 14.4337C24.7155 14.4328 24.6996 14.4292 24.6837 14.4247C24.6819 14.4247 24.6793 14.4247 24.6775 14.4247C24.6457 14.4229 24.6139 14.4193 24.5821 14.4148C24.4885 14.395 24.3957 14.3716 24.303 14.3473C24.2783 14.3383 24.2544 14.3302 24.2306 14.3203C24.2262 14.3185 24.2217 14.3167 24.2173 14.3149C24.2147 14.314 24.2129 14.3131 24.2103 14.3122C24.1793 14.2987 24.1484 14.2843 24.1184 14.269C24.1078 14.2636 24.0972 14.2582 24.0866 14.2519C24.0619 14.2384 24.0371 14.2249 24.0133 14.2105C24.008 14.2078 24.0027 14.2051 23.9983 14.2015C23.9744 14.1862 23.9506 14.17 23.9267 14.1539C23.9144 14.1449 23.9011 14.1368 23.8888 14.1278C23.8667 14.1116 23.8446 14.0936 23.8225 14.0765C23.8066 14.0639 23.7916 14.0513 23.7757 14.0378C23.766 14.0288 23.7554 14.0207 23.7457 14.0117C23.713 13.982 23.6821 13.9514 23.6521 13.919C23.6256 13.8911 23.6008 13.8623 23.5761 13.8326C23.5523 13.8038 23.5284 13.7741 23.5054 13.7436C23.1504 13.2757 22.979 12.6845 22.9163 12.1015C22.858 11.5598 22.8995 10.9947 23.0665 10.4738C23.0806 10.4306 23.0947 10.3883 23.1106 10.346C23.1292 10.2947 23.1495 10.2443 23.1707 10.1939C23.176 10.1822 23.1804 10.1705 23.1857 10.1588C23.2096 10.1049 23.2343 10.0509 23.2608 9.99869C23.2758 9.96899 23.2926 9.9393 23.3085 9.91051C23.32 9.88981 23.3323 9.86912 23.3447 9.84842C23.3827 9.78364 23.4233 9.71975 23.4657 9.65767C23.2634 9.47951 22.896 9.33555 22.2936 9.19249C21.7469 9.06202 21.0121 8.93695 20.1085 8.81998C19.371 8.7246 18.638 8.64992 18.0753 8.59863C17.9764 8.65982 17.8846 8.7309 17.798 8.80828C17.798 8.80828 17.7962 8.80828 17.7953 8.80828C17.7777 8.82448 17.7609 8.84157 17.7441 8.85777C17.7441 8.85777 17.7424 8.85957 17.7415 8.86047C17.7326 8.86857 17.7238 8.87756 17.715 8.88566C17.6514 8.94955 17.5931 9.01703 17.5383 9.08811C17.5383 9.08811 17.5374 9.08901 17.5366 9.08991C17.5277 9.10161 17.5189 9.11241 17.5101 9.1241C17.5039 9.1322 17.4986 9.1403 17.4924 9.1493C17.4871 9.15739 17.4818 9.16459 17.4756 9.17269C17.473 9.17719 17.4694 9.18079 17.4668 9.18529C17.4624 9.19159 17.458 9.19788 17.4535 9.20418C17.4518 9.20688 17.45 9.20868 17.4482 9.21138C17.4465 9.21498 17.4438 9.21768 17.4412 9.22128C17.4385 9.22668 17.4359 9.23208 17.4323 9.23657C17.4191 9.25727 17.4058 9.27886 17.3926 9.29956C17.3846 9.31216 17.3767 9.32475 17.3687 9.33735C17.3696 9.33645 17.3705 9.33555 17.3723 9.33465C17.2504 9.5434 17.1568 9.77194 17.0985 10.0086C17.0393 10.2488 17.0075 10.499 16.9969 10.7491C16.9872 10.4981 16.9536 10.2488 16.8945 10.0086C16.8362 9.77104 16.7425 9.5434 16.6207 9.33465C16.6215 9.33555 16.6224 9.33645 16.6242 9.33735C16.6162 9.32475 16.6083 9.31216 16.6003 9.29956C16.5871 9.27796 16.5738 9.25727 16.5606 9.23657C16.5571 9.23118 16.5544 9.22578 16.5518 9.22128C16.55 9.21768 16.5473 9.21498 16.5447 9.21138C16.5429 9.20868 16.5412 9.20688 16.5394 9.20418C16.535 9.19788 16.5306 9.19159 16.5261 9.18529C16.5235 9.18079 16.52 9.17719 16.5173 9.17269C16.512 9.16459 16.5067 9.15739 16.5005 9.1493C16.4943 9.1412 16.489 9.1322 16.4829 9.1241C16.474 9.11241 16.4652 9.10071 16.4564 9.08991C16.4564 9.08991 16.4555 9.08901 16.4546 9.08811C16.3998 9.01703 16.3416 8.94955 16.278 8.88566C16.2691 8.87666 16.2603 8.86857 16.2515 8.86047C16.2515 8.86047 16.2497 8.85867 16.2488 8.85777C16.232 8.84157 16.2152 8.82358 16.1976 8.80828C16.1976 8.80828 16.1958 8.80828 16.1949 8.80828C16.1093 8.7309 16.0165 8.65982 15.9176 8.59863C15.355 8.64992 14.6219 8.7246 13.8844 8.81998C12.9809 8.93695 12.246 9.06202 11.6993 9.19249C11.0978 9.33555 10.7304 9.47951 10.5272 9.65767C10.5705 9.71975 10.6103 9.78364 10.6482 9.84842C10.6606 9.86912 10.6721 9.88981 10.6845 9.91051C10.7012 9.9402 10.7171 9.96899 10.7321 9.99869C10.7586 10.0509 10.7843 10.1049 10.8072 10.1588C10.8125 10.1705 10.8178 10.1822 10.8222 10.1939C10.8434 10.2443 10.8637 10.2947 10.8823 10.346C10.8982 10.3883 10.9123 10.4306 10.9265 10.4738C11.0934 10.9947 11.1349 11.5598 11.0766 12.1015C11.0139 12.6845 10.8426 13.2757 10.4875 13.7436C10.4645 13.7732 10.4416 13.8029 10.4168 13.8326C10.3921 13.8623 10.3674 13.8911 10.3409 13.919C10.3108 13.9514 10.279 13.982 10.2473 14.0117C10.2375 14.0207 10.2278 14.0288 10.2172 14.0378C10.2022 14.0513 10.1863 14.0639 10.1704 14.0765C10.1483 14.0945 10.1271 14.1116 10.1042 14.1278C10.0918 14.1368 10.0786 14.1458 10.0662 14.1539C10.0423 14.17 10.0194 14.1871 9.99465 14.2015C9.98935 14.2042 9.98405 14.2069 9.97963 14.2105C9.95579 14.2249 9.93106 14.2393 9.90633 14.2519C9.89573 14.2573 9.88513 14.2636 9.87453 14.269C9.8445 14.2843 9.81359 14.2987 9.78267 14.3122C9.78002 14.3131 9.77826 14.314 9.77561 14.3149C9.77119 14.3167 9.76677 14.3185 9.76236 14.3203C9.73851 14.3302 9.71378 14.3392 9.68993 14.3473C9.59719 14.3716 9.50445 14.395 9.41083 14.4148C9.37904 14.4193 9.34724 14.4229 9.31544 14.4247C9.31368 14.4247 9.31103 14.4247 9.30926 14.4247C9.29336 14.4292 9.27658 14.4328 9.25892 14.4337C9.25627 14.4337 9.25362 14.4337 9.25008 14.4337C9.19267 14.4337 9.13438 14.4337 9.07697 14.4337C9.07432 14.4337 9.07255 14.4337 9.0699 14.4337C9.05842 14.4337 9.04606 14.4337 9.03458 14.4328C8.99041 14.4319 8.94625 14.4301 8.90209 14.4283C8.865 14.4265 8.8279 14.4247 8.7908 14.422C8.78727 14.422 8.78285 14.422 8.77932 14.422C8.72986 14.4184 8.6804 14.4148 8.63094 14.4103C8.11778 14.3635 7.60992 14.2564 7.1109 14.1215C6.4732 13.9496 5.81785 13.7759 5.20842 13.5168C5.19605 13.5114 5.1828 13.5069 5.17044 13.5015C5.03265 13.4421 4.8984 13.3773 4.7668 13.3072H0L2.55077 15.9057C3.36865 16.7389 4.47798 17.2068 5.63502 17.2068C6.11903 17.2068 6.59951 17.1249 7.05702 16.9639L7.33171 16.8676C7.564 16.8154 7.78127 16.7569 7.98265 16.6957C7.9482 16.6813 7.91375 16.6669 7.88019 16.6516C7.85811 16.6417 7.83603 16.6318 7.81395 16.6219C7.79364 16.6129 7.7742 16.6039 7.75389 16.5949C7.73093 16.5841 7.70884 16.5743 7.68676 16.5635C7.66733 16.5545 7.6479 16.5446 7.62847 16.5356C7.60551 16.5248 7.58254 16.5131 7.55958 16.5023C7.54103 16.4933 7.52248 16.4843 7.50394 16.4744C7.48009 16.4627 7.45712 16.451 7.43328 16.4384C7.41561 16.4294 7.39795 16.4204 7.38117 16.4114C7.35644 16.3988 7.33171 16.3862 7.30697 16.3727C7.29461 16.3664 7.28313 16.3601 7.27076 16.3538C7.216 16.3259 7.16212 16.2971 7.10825 16.2692C7.09677 16.2629 7.0844 16.2566 7.07292 16.2512C7.03141 16.2296 6.98989 16.208 6.94838 16.1873C6.40696 15.9129 5.85229 15.6664 5.29232 15.436C5.14129 15.374 4.98937 15.3137 4.83746 15.2534C4.78711 15.2336 4.73677 15.2147 4.68731 15.1949C4.58397 15.1544 4.48063 15.1148 4.37641 15.0752C4.319 15.0536 4.26248 15.032 4.20507 15.0104C4.10526 14.9727 4.00546 14.9358 3.90565 14.8989C3.85001 14.8782 3.79525 14.8584 3.7396 14.8377C3.5974 14.7855 3.4552 14.7333 3.31212 14.6811C3.41281 14.7126 3.51438 14.745 3.61507 14.7756C4.27131 14.9745 4.92843 15.1697 5.58732 15.3596C6.70461 15.6808 7.84486 16.0722 8.99836 16.2728C8.99395 16.2791 8.9913 16.2836 8.9913 16.2836V16.7092C8.9913 17.8996 9.45588 19.0414 10.2817 19.8836H10.9017C11.0731 19.9448 11.2418 20.006 11.3972 20.078C12.0111 20.3605 12.5278 20.8626 12.8236 21.4798C13.2988 22.4714 13.0868 23.4647 12.5799 24.3915C12.496 24.5454 12.4147 24.6956 12.3423 24.845C12.2725 24.9881 12.2098 25.1302 12.1577 25.2751L11.8874 25.9049C11.7691 26.1794 11.7081 26.4763 11.7081 26.7759V26.9496C11.7081 27.5254 11.9325 28.077 12.3326 28.4846C12.7318 28.8913 13.2741 29.1207 13.8394 29.1207C14.3189 29.1207 14.7959 29.0605 15.2614 28.9426L15.5572 28.867C16.0218 28.7482 16.4996 28.6888 16.9792 28.6888H17.0269C17.5065 28.6888 17.9835 28.7491 18.4489 28.867L18.7448 28.9426C19.2094 29.0614 19.6872 29.1207 20.1668 29.1207C20.7321 29.1207 21.2735 28.8922 21.6736 28.4846C22.0728 28.0779 22.2981 27.5254 22.2981 26.9496V26.7759C22.2981 26.4763 22.2371 26.1794 22.1188 25.9049L21.8485 25.2751C21.7955 25.1302 21.7337 24.9881 21.6639 24.845C21.5906 24.6956 21.5102 24.5454 21.4263 24.3915C20.9193 23.4647 20.7074 22.4714 21.1825 21.4798C21.4784 20.8626 21.9951 20.3596 22.609 20.078C22.7644 20.0069 22.9331 19.9457 23.1045 19.8836H23.7245C24.5512 19.0414 25.0149 17.8996 25.0149 16.7092V16.2836C25.0149 16.2836 25.0122 16.2791 25.0078 16.2728C26.1604 16.0722 27.3016 15.6808 28.4189 15.3596C29.0777 15.1697 29.7349 14.9745 30.3911 14.7756C30.4927 14.745 30.5934 14.7126 30.6941 14.6811C30.5519 14.7333 30.4088 14.7855 30.2666 14.8377C30.2109 14.8584 30.1562 14.8782 30.1005 14.8989C30.0007 14.9358 29.9009 14.9736 29.8011 15.0104C29.7437 15.032 29.6872 15.0527 29.6298 15.0752C29.5264 15.1148 29.4231 15.1544 29.3189 15.1949C29.2685 15.2147 29.2182 15.2336 29.1687 15.2534C29.0168 15.3128 28.8649 15.374 28.7139 15.436C28.153 15.6664 27.5983 15.9129 27.0578 16.1873C27.0163 16.208 26.9748 16.2296 26.9333 16.2512C26.9218 16.2575 26.9094 16.2638 26.8979 16.2692C26.8441 16.2971 26.7893 16.325 26.7354 16.3538C26.7231 16.3601 26.7116 16.3664 26.6992 16.3727C26.6745 16.3853 26.6497 16.3979 26.625 16.4114C26.6074 16.4204 26.5897 16.4294 26.5729 16.4384C26.5491 16.4501 26.5261 16.4618 26.5022 16.4744C26.4837 16.4834 26.4651 16.4933 26.4466 16.5023C26.4236 16.514 26.4007 16.5248 26.3777 16.5356C26.3583 16.5446 26.3388 16.5545 26.3194 16.5635C26.2973 16.5743 26.2744 16.585 26.2523 16.5949C26.232 16.6039 26.2125 16.6129 26.1922 16.6219C26.1701 16.6318 26.1481 16.6417 26.126 16.6516C26.0915 16.666 26.058 16.6813 26.0235 16.6957C26.2249 16.7569 26.4422 16.8145 26.6745 16.8676L26.9492 16.9639C27.4067 17.1249 27.8872 17.2068 28.3712 17.2068C29.5282 17.2068 30.6375 16.7389 31.4554 15.9057L34.0062 13.3072H29.2323H29.2261ZM20.8292 14.3347L17.6267 18.0085C17.6267 17.3966 17.8925 16.8163 18.3527 16.424C19.2986 15.6178 20.8284 14.3347 20.8284 14.3347H20.8292ZM16.3733 18.0085L13.1707 14.3347C13.1707 14.3347 14.7014 15.6178 15.6464 16.424C16.1066 16.8163 16.3725 17.3966 16.3725 18.0085H16.3733ZM10.7145 16.6264C10.7622 17.0502 10.8894 17.6108 11.2285 17.914C11.0978 17.9059 10.9644 17.869 10.8699 17.8276C10.5882 17.7053 10.4239 17.4002 10.3197 17.1222C10.2181 16.8514 10.1395 16.5617 10.1254 16.271C10.2305 15.6223 10.5846 15.1868 11.0333 14.7279C11.4802 14.2708 11.8388 13.7022 12.0782 13.1047C12.1736 12.8663 12.2398 12.6206 12.2575 12.3777C12.3334 12.9311 12.2372 13.4844 11.9775 13.9829C11.7293 14.4589 11.3849 14.8611 11.081 15.2993C10.7922 15.7141 10.6562 16.1118 10.7145 16.6273V16.6264ZM12.6753 18.3747C11.936 18.0049 11.7443 17.1987 11.921 16.4492C11.9316 16.4465 11.9422 16.4447 11.9537 16.4429C12.0314 16.5293 12.1073 16.6129 12.1789 16.6948C12.2372 16.7614 12.2963 16.8262 12.3555 16.8919C12.2813 17.0664 12.2734 17.2986 12.2734 17.5001C12.2734 17.9275 12.6178 18.2793 13.0409 18.2793C13.2237 18.2793 13.4278 18.2766 13.5885 18.2163C13.6574 18.291 13.7272 18.3657 13.7961 18.4413C13.7846 18.4449 13.774 18.4494 13.7625 18.453C13.3986 18.5727 13.0197 18.5457 12.6753 18.3738V18.3747ZM14.5645 27.8655C14.1997 27.8826 13.819 27.7261 13.555 27.4732C13.2803 27.2114 13.1407 26.8308 13.1345 26.4529C13.131 26.2468 13.154 25.9112 13.3421 25.7943C13.5903 26.0057 13.8473 26.1893 13.9268 26.2549C14.4382 26.676 14.9425 27.1061 15.4672 27.5092C15.2357 27.7288 14.8374 27.853 14.5645 27.8655ZM17.1665 25.4784C17.1108 25.4883 17.0552 25.4982 16.9996 25.5081C16.9439 25.4991 16.8892 25.4883 16.8326 25.4784C16.5235 25.4245 16.2258 25.3318 15.922 25.2535C15.2234 25.0726 14.5415 25.0142 13.8314 25.159C13.7828 25.1689 13.7678 25.1032 13.8111 25.0852C14.2077 24.9197 14.6343 24.8108 15.0644 24.7766V24.1594C15.0582 24.0838 15.0556 24.0082 15.0556 23.9362C15.0556 23.2767 15.0635 22.8493 15.0856 22.3121C15.1245 21.3368 15.0935 20.3695 14.4929 19.5588C14.4797 19.5408 14.5062 19.5255 14.5203 19.5372C15.1995 20.0897 15.4928 20.9832 15.5837 21.8343C15.6173 22.1502 15.6279 22.4777 15.6208 22.8025L15.6235 22.7989V24.7757C15.6791 24.7802 15.7339 24.7856 15.7895 24.7928C15.9971 24.8207 16.1879 24.8765 16.3769 24.9467C16.4723 24.9854 16.5544 25.0187 16.6277 25.0465C16.6524 25.0564 16.6763 25.0672 16.701 25.0771C16.8282 25.132 16.9121 25.1518 17.0066 25.1437C17.0985 25.1455 17.1886 25.1257 17.2999 25.0771C17.6002 24.9485 17.8846 24.836 18.2105 24.7919C18.2652 24.7847 18.3209 24.7793 18.3765 24.7748V22.798L18.3792 22.8016C18.3721 22.4759 18.3818 22.1493 18.4163 21.8334C18.5072 20.9814 18.8005 20.0888 19.4797 19.5363C19.4938 19.5246 19.5203 19.5399 19.5071 19.5579C18.9065 20.3686 18.8755 21.3359 18.9144 22.3112C18.9356 22.8475 18.9444 23.2749 18.9444 23.9353C18.9444 24.0082 18.9418 24.0829 18.9356 24.1585V24.7757C19.3657 24.809 19.7923 24.9179 20.1889 25.0843C20.2331 25.1023 20.2172 25.168 20.1686 25.1581C19.4585 25.0133 18.7766 25.0717 18.078 25.2526C17.775 25.3309 17.4765 25.4236 17.1674 25.4775L17.1665 25.4784ZM20.8655 26.452C20.8593 26.8308 20.7197 27.2105 20.445 27.4723C20.1801 27.7252 19.8003 27.8817 19.4355 27.8646C19.1626 27.8512 18.7651 27.727 18.5328 27.5083C19.0575 27.1052 19.5618 26.6751 20.0732 26.254C20.1527 26.1884 20.4097 26.0057 20.6579 25.7934C20.8451 25.9103 20.8681 26.246 20.8655 26.452ZM21.3247 18.3738C20.9803 18.5457 20.6014 18.5727 20.2375 18.453C20.226 18.4494 20.2154 18.4449 20.2039 18.4413C20.2728 18.3666 20.3417 18.2919 20.4115 18.2163C20.5713 18.2766 20.7763 18.2793 20.9591 18.2793C21.3822 18.2793 21.7266 17.9284 21.7266 17.5001C21.7266 17.2977 21.7187 17.0655 21.6445 16.8919C21.7036 16.8262 21.7628 16.7614 21.8211 16.6948C21.8927 16.6129 21.9695 16.5284 22.0463 16.4429C22.0578 16.4447 22.0684 16.4465 22.079 16.4492C22.2557 17.1987 22.064 18.004 21.3247 18.3747V18.3738ZM23.6803 17.1204C23.5761 17.3984 23.4118 17.7035 23.1301 17.8258C23.0356 17.8672 22.9013 17.9041 22.7715 17.9122C23.1106 17.609 23.2378 17.0493 23.2855 16.6246C23.3438 16.1091 23.2078 15.7114 22.919 15.2966C22.6151 14.8593 22.2698 14.4571 22.0225 13.9802C21.7628 13.4817 21.6666 12.9284 21.7425 12.375C21.7602 12.6179 21.8264 12.8636 21.9218 13.102C22.1612 13.6995 22.5198 14.2681 22.9667 14.7252C23.4154 15.1841 23.7695 15.6196 23.8746 16.2683C23.8605 16.5599 23.7828 16.8496 23.6803 17.1195V17.1204Z" fill="#FF5C00"/>
<path d="M17.0208 28.9062C16.7593 28.9062 16.5005 28.9557 16.2577 29.052C16.0165 29.1474 15.7021 29.2725 15.461 29.3678C15.2172 29.4641 14.9593 29.5136 14.6979 29.5136H13.6477C14.1238 30.7391 15.7259 31.0198 17.0005 30.9982C18.275 31.0207 19.8763 30.7391 20.3532 29.5136H19.3163C19.046 29.5136 18.7793 29.4605 18.5284 29.3579L17.8086 29.0619C17.5587 28.9593 17.291 28.9062 17.0208 28.9062Z" fill="#FF5C00"/>
</g>
<path d="M52.635 15.16C55.561 17.459 54.041 21.696 50.583 22C50.507 22 40.323 22.019 40.266 22.019V20.898C40.266 20.233 40.798 19.701 41.463 19.701H50.336C51.134 19.663 51.837 18.979 51.837 18.2C51.837 17.364 51.115 16.68 50.222 16.68C47.847 16.661 47.41 16.661 46.346 16.661C45.681 16.661 45.13 16.129 45.13 15.483V14.362C49.082 14.362 49.063 14.362 49.5 14.362C50.393 14.343 51.096 13.678 51.096 12.842C51.096 12.006 50.374 11.322 49.5 11.322C49.367 11.322 44.142 11.322 41.463 11.322C40.798 11.322 40.266 10.79 40.266 10.144V9.023C50.26 9.023 50.108 9.061 50.108 9.061C52.977 9.498 54.535 12.728 52.635 15.16ZM63.8922 19.378C64.3672 19.625 64.6712 20.081 64.6712 20.613V22.095L63.8732 21.848C61.0232 20.993 59.1232 18.504 59.1232 15.654V8.966H60.6622C61.0992 8.966 61.4792 9.327 61.4792 9.764V15.654C61.4792 17.231 62.3912 18.675 63.8922 19.378ZM70.2952 9.764C70.2952 9.327 70.6562 8.966 71.1122 8.966H72.6512V15.559C72.6892 18.466 70.7892 20.993 67.9012 21.848L67.1032 22.095V20.613C67.1032 20.081 67.4072 19.625 67.8822 19.378C69.3642 18.675 70.2952 17.231 70.2952 15.654V9.764ZM87.0951 19.701C87.7601 19.701 88.3111 20.233 88.3111 20.898V22.019C84.5491 22.019 84.3971 22.019 84.2261 22C80.3121 21.753 77.7851 18.751 77.7851 15.521V9.023H78.9821C79.6471 9.023 80.1981 9.555 80.1981 10.201V15.502C80.1981 17.858 82.1171 19.701 84.5491 19.701H87.0951ZM102.065 19.701C102.73 19.701 103.281 20.233 103.281 20.898V22.019C99.519 22.019 99.367 22.019 99.196 22C95.282 21.753 92.755 18.751 92.755 15.521V9.023H93.952C94.617 9.023 95.168 9.555 95.168 10.201V15.502C95.168 17.858 97.087 19.701 99.519 19.701H102.065Z" fill="#FF5C00"/>
<path d="M115.798 9.023C116.463 9.023 117.014 9.536 117.014 10.201V11.322H105.937C105.272 11.322 104.74 10.79 104.74 10.144V9.023H115.798ZM112.074 22.019H110.877C110.212 22.019 109.661 21.487 109.661 20.822V12.614H110.877C111.542 12.614 112.074 13.146 112.074 13.811V22.019ZM130.789 9.023C131.454 9.023 132.005 9.555 132.005 10.201V22.019H130.789C130.124 22.019 129.573 21.487 129.573 20.822V15.901H120.928C120.263 15.901 119.731 15.369 119.731 14.723V13.602H129.573V9.023H130.789ZM138.032 11.322C137.595 11.322 137.234 10.961 137.234 10.524V9.023H149.907V10.144C149.907 10.79 149.375 11.322 148.71 11.322H138.032ZM148.881 19.701C149.546 19.701 150.097 20.233 150.097 20.898V22.019H137.234V20.48C137.234 20.062 137.576 19.701 138.013 19.701H148.881ZM145.252 15.483C145.252 16.129 144.701 16.661 144.036 16.661H137.234V15.141C137.234 14.704 137.576 14.362 138.013 14.362H145.252V15.483ZM169.227 9.612C169.436 9.232 169.873 9.023 170.348 9.023H171.621L171.602 21.943H170.614C169.854 21.943 169.227 21.411 169.227 20.765V14.077L164.819 21.297C164.553 21.734 164.021 22.019 163.432 22.019H163.242C162.653 22.019 162.14 21.734 161.855 21.297L157.447 14.077V20.765C157.447 21.411 156.839 21.943 156.06 21.943H155.091L155.072 9.023H156.326C156.82 9.023 157.238 9.232 157.466 9.593L163.337 19.416L169.227 9.612ZM177.639 11.322C177.202 11.322 176.841 10.961 176.841 10.524V9.023H189.514V10.144C189.514 10.79 188.982 11.322 188.317 11.322H177.639ZM188.488 19.701C189.153 19.701 189.704 20.233 189.704 20.898V22.019H176.841V20.48C176.841 20.062 177.183 19.701 177.62 19.701H188.488ZM184.859 15.483C184.859 16.129 184.308 16.661 183.643 16.661H176.841V15.141C176.841 14.704 177.183 14.362 177.62 14.362H184.859V15.483Z" fill="black"/>
<defs>
<clipPath id="clip0_51_459">
<rect width="34" height="31" fill="white"/>
</clipPath>
</defs>
</svg>
