<svg width="392" height="70" viewBox="0 0 392 70" fill="none" xmlns="http://www.w3.org/2000/svg">
<path d="M36.5 0.599998C41.5667 0.599998 46.4 1.6 51 3.6C55.6 5.6 59.5 8.26667 62.7 11.6C65.9667 14.9333 68.4667 18.9333 70.2 23.6C71.9333 28.2 72.5333 33 72 38L71.7 41H66.1C64.3667 41 62.8667 40.4 61.6 39.2C60.4 38 59.8 36.5333 59.8 34.8C59.8 28.7333 57.5333 23.5667 53 19.3C48.4667 14.9667 42.9667 12.8 36.5 12.8C30.1 12.8 24.6333 14.9667 20.1 19.3C15.5667 23.5667 13.3 28.7333 13.3 34.8C13.3 40.8667 15.5667 46.0667 20.1 50.4C24.6333 54.7333 30.1 56.9 36.5 56.9H65.9C67.6333 56.9 69.1 57.5 70.3 58.7C71.5667 59.9 72.2 61.3333 72.2 63V69C70.8667 69 66.8333 69 60.1 69C53.4333 69 48.9 69 46.5 69H36.6C30.1333 69 24.1667 67.5 18.7 64.5C13.2333 61.4333 8.9 57.2667 5.7 52C2.5 46.7333 0.9 41 0.9 34.8C0.9 28.6 2.5 22.9 5.7 17.7C8.9 12.4333 13.2333 8.26667 18.7 5.2C24.1667 2.13333 30.1 0.599998 36.5 0.599998ZM103.579 55.2C104.846 55.8 105.812 56.7 106.479 57.9C107.212 59.0333 107.579 60.3 107.579 61.7V69.4L103.379 68.2C95.9122 65.9333 89.8789 61.8 85.2789 55.8C80.6789 49.8 78.3789 43.0333 78.3789 35.5V0.299996H86.4789C87.6789 0.299996 88.6789 0.73333 89.4789 1.6C90.3456 2.4 90.7789 3.36666 90.7789 4.5V35.5C90.7789 39.7 91.9122 43.5667 94.1789 47.1C96.5122 50.6333 99.6456 53.3333 103.579 55.2ZM137.279 4.5C137.279 3.36666 137.679 2.4 138.479 1.6C139.346 0.73333 140.346 0.299996 141.479 0.299996H149.679V35.1C149.746 42.7 147.479 49.5667 142.879 55.7C138.279 61.7667 132.212 65.9333 124.679 68.2L120.479 69.4L120.379 61.7C120.379 60.3 120.746 59.0333 121.479 57.9C122.212 56.7 123.212 55.8 124.479 55.2C128.412 53.3333 131.512 50.6333 133.779 47.1C136.112 43.5667 137.279 39.7 137.279 35.5V4.5ZM197.17 0.599998C198.437 3 201.804 9.36667 207.27 19.7C212.804 29.9667 218.404 40.4333 224.07 51.1C229.737 61.7 232.904 67.6667 233.57 69H223.07C220.604 69 218.804 67.9333 217.67 65.8L191.07 16C171.004 49.8667 160.97 66.8 160.97 66.8C160.17 68.2667 158.904 69 157.17 69H145.57C162.17 40.5333 174.47 19.3667 182.47 5.49999C183.337 3.96666 184.504 2.76666 185.97 1.9C187.437 1.03333 189.037 0.599998 190.77 0.599998H197.17ZM291.88 0.599998C293.746 0.599998 295.246 1.13333 296.38 2.2C297.58 3.19999 298.18 4.53333 298.18 6.2V12.1H240.98C239.18 12.1 237.646 11.5 236.38 10.3C235.18 9.03333 234.58 7.56666 234.58 5.9V0.599998H291.88ZM291.88 57.2C293.68 57.2 295.18 57.7667 296.38 58.9C297.58 60.0333 298.18 61.4333 298.18 63.1V69H234.58V63.3C234.58 59.8333 235.846 56.8333 238.38 54.3C238.38 54.3 240.88 51.9333 245.88 47.2C250.88 42.4667 256.013 37.6333 261.28 32.7C266.546 27.7 269.413 24.9667 269.88 24.5C272.346 22.1667 275.28 21 278.68 21H289.68C280.013 29.9333 267.446 42 251.98 57.2H291.88ZM378.986 3.69999C380.253 1.63333 382.253 0.599998 384.986 0.599998H391.686L391.486 68.7H386.386C384.386 68.7 382.653 68.1 381.186 66.9C379.786 65.6333 379.086 64.1333 379.086 62.4V27.3L355.886 65.2C354.353 67.7333 351.919 69 348.586 69H347.586C344.253 69 341.819 67.7333 340.286 65.2L317.086 27.3V62.4C317.086 64.1333 316.353 65.6333 314.886 66.9C313.486 68.1 311.786 68.7 309.786 68.7H304.586L304.486 0.599998H311.186C313.919 0.599998 315.886 1.63333 317.086 3.69999L348.086 55.3L378.986 3.69999Z" fill="white"/>
</svg>
